<?xml version="1.0" encoding="UTF-8"?>
<svg enable-background="new 0 0 1856 4284" version="1.1" viewBox="0 0 1856 4284" xmlns="http://www.w3.org/2000/svg">
 <path d="m1811.5 1659.2c-4.37-17.48-12.48-33.69-19.47-50.21-11.21-18.74-24.11-36.4-36.29-54.52-11-15.69-20.31-32.46-30.4-48.73-7.43-11.74-14.39-23.76-21.46-35.72-7.92-12.67-14.8-26.04-24.01-37.85-10.52-14.84-21.42-29.41-31.54-44.52-4.12-6.19-8.69-12.1-12.23-18.65-14.14-24.92-27.67-50.18-40.19-75.94-8.93-19.9-18.28-39.62-25.81-60.11-4.16-10.15-6.97-20.78-10.97-30.99-6.82-18.99-15.74-37.14-24.92-55.08-4.79-7.46-9.92-14.72-15.05-21.96-6.3-7.02-12.75-13.94-19.41-20.6-7.75-6.64-15.98-12.7-23.96-19.06-6.11-4.04-12.78-7.15-19.11-10.83-7.41-4.43-15.64-7.17-23.53-10.58-8.73-3.98-18.23-5.67-27.34-8.5-6.03-1.95-12.45-2.09-18.52-3.77-3.64-5.88-6.31-12.52-11.24-17.52-6.34-7.03-15.83-10.68-25.14-11.24-5.72-0.46-11.07-2.75-16.54-4.29-4.05-1.42-8.4-2.32-11.99-4.75-13.36-10.81-27.65-20.37-41.48-30.56-9.35-7.18-20.41-11.84-31.82-14.62-4.98-21.8-2.84-44.31-0.26-66.27 7.28-1.21 14.53-3.01 21.1-6.48 6.58-2.87 12.23-7.3 18.22-11.16-1.35 3.58-3.48 6.88-4.42 10.6-0.21 3.25-1.06 6.39-2.44 9.34 0.47 0.02 1.42 0.07 1.9 0.09 0.61-1.86 1.27-3.7 1.98-5.52 0.89-2.1 1.79-4.2 2.65-6.31 1.75-3.67 3.5-7.34 5.13-11.07 0.51-0.18 1.54-0.55 2.05-0.73-0.39 0.92-0.76 1.85-1.13 2.79-1.6 5.51-5.21 10.64-4.44 16.62l-0.68-0.05-2.28 3.42c-0.01 1.19-0.01 2.4 0.01 3.62l-1.02-0.23c0.37 4.37-1.57 8.39-2.98 12.41-2.99 7.87-4.59 16.16-6.35 24.37-0.38 1.65-0.66 3.32-0.91 5-0.51 2.01-0.98 4.02-1.53 6.03-0.22 4.88-0.33 9.76-0.26 14.65 1.05-5.55 0.72-11.29 2.38-16.73 0.69-2.15 1.29-4.33 1.85-6.52l0.94-0.01c-0.08-1.66-0.17-3.33-0.22-4.96l1.28-0.01c-0.08-1.64-0.16-3.28-0.21-4.9l1-0.13c0.98-8.55 4.82-16.31 7.34-24.43 3.81-11.93 8.39-23.59 12.98-35.23 12.13-6.41 23.72-13.88 34.52-22.36-0.27 4.88-0.66 9.74-1.18 14.6-0.51 4.76-0.16 9.69-1.74 14.29-0.05 3.82-0.29 7.68 0.12 11.49 0.72-3.7 0.03-7.52 0.25-11.26 0.68-3.11 1.12-6.27 1.27-9.44 0.33-6.74 1.52-13.41 1.58-20.16 0.53-0.19 1.58-0.59 2.1-0.78l1 1.6c-0.09-0.69-0.28-2.06-0.37-2.75 5.01-4 9.72-8.36 14.47-12.66-0.13 7.95-0.39 16.03 2.06 23.73-2.01-7.87-1.74-15.97-1.58-24.01 1.15-1.2 2.33-2.38 3.52-3.56-0.03 3.21-0.05 6.43 0.17 9.65 0.47-3.35 0.47-6.74 0.47-10.1 28.59-28.87 52.53-63.41 64.19-102.66 2.97-10.77 5.36-21.69 8.32-32.47 0.81-2.5 0.61-5.15 0.6-7.73 3.28-2.82 2.7-7.4 3.73-11.2-0.15-7.35 1.47-14.58 1.32-21.92-0.12-5.72 1.33-11.34 1.06-17.06-0.62-17.21 0.84-34.41 2.65-51.5 1.95-20.32 6.17-40.31 9.18-60.48 3.28-11.84 4.27-24.2 7.83-35.98 0.93-4.3 1.11-8.71 1.98-13.01 0.88-8.81 1.38-17.66 2.63-26.42 0.91-4.82 0.46-9.76 1.23-14.6 0.87-5.72-0.18-11.58 1-17.27 0.39 5.4 0.61 10.88-0.3 16.26-0.82 5.15-0.15 10.38-0.53 15.56-1.42 9.04-0.47 18.23-1.08 27.34-1.42 10.76-0.28 21.71-0.83 32.54-0.43-3.9-0.39-7.84-0.83-11.73-0.02 10.46 0.01 20.92-0.22 31.38l-0.62 0.79c-0.05 6.78-0.25 13.58-1.61 20.24-1.04 4.26-0.23 8.68-1.08 12.95-0.45 1.67-0.81 3.37-1.29 5.04-0.12 1.16-0.22 2.32-0.3 3.5-0.47 0.28-1.42 0.86-1.9 1.15-0.1 1.41-0.21 2.83-0.31 4.26-1.05 4.78-0.73 9.73-0.71 14.6 0.72 9.85-1.97 19.51-2.33 29.32-1.28 4.94-0.23 10.09-1.13 15.08-0.66 3.68-0.65 7.45-0.25 11.17 2.18-2.97 1.54-6.72 1.63-10.16-0.25-6.74 1.29-13.36 1.3-20.1 1.49-4.33 0.2-9.06 1.73-13.39 0.84 7.55-1.28 14.94-1.24 22.48-0.97 3.57-0.84 7.31-0.33 10.95 1.69-9.57 2.49-19.28 3.99-28.89 0.67-2.66 0.72-5.41 0.72-8.13 0.22-1.56-0.7-4.08 2.2-3.98-0.93-0.93-4.33-2.03-1.2-2.82-0.15-3.23-0.29-6.48 0.14-9.69 0.46 1.96 0.71 3.93 1.13 5.93 0.71-6.36 2.4-12.53 3.7-18.78 0.61 7.28-2.5 14.15-3.13 21.33 2.37-2.14 2.64-5.45 3.25-8.38l0.65-0.11c0.4-2.54 1.03-5.03 1.61-7.54 0.85-2.81 1.56-5.66 2.52-8.44 0 1.85-0.05 3.7-0.14 5.55-1.45 4.22-1.92 8.66-2.04 13.1-0.82 5.06-2.34 10.06-1.8 15.26 1.19-3.86 0.42-8.19 2.76-11.68 1.59 8.97-2.4 17.7-1.6 26.66 1.03-5.38 1.3-10.88 2.51-16.23 0.43-4.36 1.13-8.69 1.96-12.99 0.26-2.05 0.53-4.11 1.13-6.1 0.14-2.21 0.19-4.41 0.22-6.61l1.15 0.06c-0.14-1.35-0.25-2.7-0.35-4.03l1.23-0.03c-0.02-2.65-0.01-5.29-0.03-7.93l0.86-0.06c0.77-4.41 1.28-8.85 1.45-13.33 0.73-2.6 0.79-5.31 0.98-7.98 0.87-2.59 0.89-5.34 1.1-8.03 1.79-9.71 0.83-19.75 2.79-29.42-0.45 12.11 0.76 24.33-1.48 36.33-0.44 2.17-0.7 4.37-0.94 6.58l1.09-0.09c0.2 1.3 0.44 2.6 0.71 3.9 0.36-3.77 0.39-7.56 0.88-11.32 1.94-15.23 2.09-30.64 1.55-45.97-0.33-7.92 1.14-15.76 1.07-23.67 0.08-8.18 1.96-16.23 1.8-24.41 0.31-12.98 0.44-25.96 0.75-38.93-0.59-12.55-0.87-25.11-1.25-37.66-0.66-0.1-1.99-0.28-2.65-0.37 0.84 11.82 1.88 23.66 1.09 35.52-0.75-3.81-0.77-7.69-0.96-11.55-0.89-2.48-0.71-5.14-0.65-7.71l-1.23 0.08c1.41-5.06 0.99-10.37 0.16-15.49 0.99-1.47 1.74-3.07 2.43-4.71l-3.24 0.45c0.57-0.75 1.16-1.49 1.77-2.23-0.08-1.91-0.11-3.82-0.14-5.72 0.03-1.82 0.13-3.66 0.31-5.47l-1.48 0.27c0.54-2.52 0.44-5.11 0.06-7.63-1.26-8.3-0.84-16.8-2.76-25.01-1.57-6.97-3.11-13.95-4.62-20.94-2.51-12-7.18-23.37-10.91-35.01 0.26-1.78 0.52-3.56 0.76-5.35l-1.54 0.22c0.13-3.17 0.17-6.34 0.52-9.49-1.1 0.65-2.19 1.29-3.28 1.91-0.03-0.96-0.09-2.89-0.12-3.85l2.36 0.2c-0.1-2.48-0.26-4.97-0.46-7.45-1.11-0.77-2.18-1.55-3.24-2.33-3.79-1.88-8.08-1.35-12.14-1.22-2.62-0.05-5.8 0.8-7.7-1.63 0.93-0.32 2.79-0.97 3.72-1.29 2.39-0.07 4.79-0.23 7.19-0.52 0.9-0.34 2.69-1 3.58-1.33-3.85-0.35-7.7-0.35-11.53 0.01-0.83 0.16-2.47 0.5-3.29 0.67-1.66-2.39-2.6-5.17-3.72-7.82 5.22-3.01 11.15-4.36 17.02-5.48 0.37-0.45 1.1-1.35 1.47-1.8 0.65-0.01 1.94-0.03 2.59-0.04 0.52-1.82 1.1-3.62 1.63-5.45-1.16 1.26-2.3 2.53-3.43 3.79-1.26-0.04-2.5-0.07-3.71-0.09-1.99 1.61-4.46 2.09-6.94 2.09-2.79 2.11-6.02 3.55-9.5 3.91-1.14-2.44-2.4-4.82-3.81-7.1 1.41-1.45 3.01-2.71 4.82-3.64 0.46-1.04 0.92-2.07 1.41-3.1 0.66-0.65 1.33-1.3 2.02-1.95 2.68-1.25 5.31-2.61 7.94-3.99l-0.06 2.38c-0.53 0.42-1.57 1.27-2.1 1.69 1.61-0.4 3.7-0.34 4.45-2.2 1.16-0.55 2.35-1.08 3.57-1.57-0.06-1.65 0.38-3.47-0.67-4.9-2.83-4.34-3.61-9.8-7.69-13.28-1-3.34-2.5-6.62-5.4-8.73-1.73-3.33-2.92-8.1-7.1-9-0.44-0.7-0.86-1.38-1.26-2.07-1.75 1.88-4.01 2.88-6.58 2.73 0.42-0.95 1.28-2.85 1.7-3.8-0.1-1.82-0.2-3.64-0.39-5.45-0.79 2.07-1.59 4.15-2.3 6.23-1.34-2.76-1.55-5.81-1.19-8.81-2.23-2.08-4.45-4.18-7-5.85-6.15-4.49-11.89-9.63-19.11-12.39-0.09 0.62-0.26 1.86-0.35 2.47-0.54-1.04-1.06-2.08-1.58-3.11-1.19 0.14-2.37 0.29-3.53 0.43 1.7 2.35 3.5 4.8 3.85 7.78 0.82 1.51 1.66 3.01 2.53 4.5-0.53 1.02-1.04 2.04-1.52 3.06-3.13-1.32-5.19-4.05-6.92-6.84-0.22-1.2-0.41-2.41-0.58-3.61-1.04-0.08-3.12-0.23-4.16-0.3l0.4 1.55c-2.87-2.45-7.03-3.71-8.59-7.39l-2.52 0.24-0.08-0.86c-3.73-0.61-6.99-2.54-10.14-4.49 1.09-2.87 0.85-7.67 5.31-7-1.23-0.3-2.47-0.6-3.66-0.9-1.17-4.63-4.18-8.51-7.44-11.87-4.47-4.03-9.71-7.95-16.02-7.94-0.52 0.96-0.98 1.94-1.37 2.95l-0.73 0.08c-0.04 1.05-0.11 3.14-0.14 4.18l1.25-0.2c-0.01 1.95 0.01 3.91 0.02 5.86-0.82 0.61-1.62 1.22-2.39 1.86 0.44 0.3 1.31 0.91 1.75 1.22-0.57 0.06-1.72 0.19-2.3 0.26 0.24-1.42 0.46-2.85 0.7-4.27-4.48 0.39-8.84-0.8-13.25-1.28-1.31-0.39-2.6-0.75-3.89-1.11-3.12-3.87-5.44-8.86-10.2-10.97-5.94-2.48-12.52-2.56-18.67-4.2-3.98-2.25-6.72-6.25-10.93-8.15-3.42-1.47-7.06-2.32-10.56-3.56-2.23-0.82-4.51-1.9-6.93-1.59 0.38 1.91 2.26 1.8 3.78 2.11-0.07 0.64-0.21 1.94-0.27 2.59 1.67 0.54 3.32 1.12 5.02 1.67-0.6 0.16-1.81 0.48-2.42 0.64 0.46 1.67 0.92 3.46 2.49 4.47 0.09 0.49 0.28 1.47 0.38 1.95-0.8-0.79-1.59-1.58-2.35-2.37-0.4-1.3-0.8-2.58-1.16-3.88-0.94-0.52-1.87-1.04-2.78-1.55 0.01-0.56 0.02-1.69 0.03-2.25-1.86-0.51-3.32-1.73-4.65-3.04-6.41-1.52-12.62-3.79-18.78-6.08-4.76-2.12-10.1-1.62-15.15-2.18-4.08-0.62-8 0.74-11.87 1.74-8.81-8.9-19.36-16.15-31.08-20.62-10.55-4.7-22.4-6.68-33.9-5.34-2.43 0.36-4.84 0.01-7.22-0.35-3.91-0.69-7.84 0.76-11.74 0.16-7.69-1.17-15.26-3.5-23.1-3.2-6.71 0.19-13.42-0.12-20.11 0.19-13.61 1.48-27.11 4.06-40.21 8.07 2.55 0.19 5.17 0.28 7.75 0.47-2.52 0.68-5.02 1.38-7.5 2.15-1.35 0.34-2.73 0.63-4.06 0.94-2.94 1.18-5.94 2.21-9.01 2.96-2.31 0.74-4.61 1.51-6.85 2.4-1.56 0.51-3.11 1.02-4.65 1.51-0.02 0.5-0.05 1.51-0.07 2.01 1.86-0.17 3.74-0.33 5.62-0.51 5.87-1.62 11.95-2.35 17.82-4.02-0.1 0.47-0.31 1.43-0.42 1.91-5.26 1.98-11.01 1.94-16.16 4.1 2.72 0.24 5.48 0.25 8.22 0.41-2.62 0.8-5.37 0.96-8.08 0.87l0.12 0.82c-6.05 1.84-11.76 4.61-17.8 6.46-7.22 2.2-13.7 6.15-20.42 9.47-8.63 4.09-15.73 10.72-24.12 15.22-3.76 2.05-8.42 1.82-11.85 4.52 0.89 0.2 2.67 0.58 3.56 0.77-2.49 0.69-4.98 1.33-7.49 1.89-0.46 1.01-0.88 2.02-1.28 3.05 1.71-0.81 3.56-1.38 5.43-1.75-6.09 5.9-15 7.84-20.97 13.78 3.11-1.93 6.25-3.89 9.85-4.83-3.88 5.05-9.11 8.88-15.02 11.21-1.6-3.73-2.73-7.86-5.65-10.83-9.18-9.16-18.68-18-28.3-26.7-8.25-2.97-16.92-4.56-25.32-7.06-4.3-1.39-8.81-1.98-13.32-1.79-1.58 0.59-3.1 1.45-4.79 1.63-1.71-0.16-3.41-0.75-5.11-0.23-0.46 0.15-1.38 0.43-1.84 0.58-1.19 0.36-2.36 0.72-3.53 1.08-0.72 0.48-1.42 0.97-2.11 1.46-1.54 0.45-3.06 0.93-4.58 1.39-0.58 0.26-1.75 0.78-2.33 1.03l-0.05 0.92c-1.23-0.07-2.44-0.13-3.65-0.2 5.14-2.55 9.56-6.3 14.66-8.94 3.57-2.1 7.61-3.14 11.46-4.6 1.37-0.37 2.74-0.75 4.12-1.15 1.6-0.08 3.21-0.16 4.84-0.22-0.01-0.26-0.03-0.77-0.04-1.02-7.97 0.23-16.17-1.05-23.92 1.35 1.62 0.34 3.24 0.68 4.89 1.01-1.34 0.26-2.68 0.49-4 0.71-1.56 0.54-3.14 1.07-4.69 1.59 0.2-0.66 0.6-1.99 0.8-2.65-8.79 4.14-16.74 9.97-22.95 17.47-8.58 10.26-16.09 22.23-17.84 35.74-14.12-1.79-28.28 3.14-39.89 10.94 3.57 0.49 6.43-1.72 9.39-3.28-2.89 3.27-6.62 5.57-9.88 8.42-2.81 2.95-5.03 6.39-7.63 9.51-1.55 0.36-3.08 0.72-4.61 1.12 1.17 0.01 3.5 0.03 4.67 0.04-1.3 1.48-2.58 2.96-3.89 4.41-0.01 0.52-0.02 1.54-0.02 2.06-1.22 0.84-2.41 1.7-3.59 2.57-0.44 2-0.97 3.98-1.47 5.97 0.35 0.08 1.04 0.26 1.39 0.34-1.09 2.89-2.71 5.51-4.86 7.72 0.09 3.18-0.67 6.34-3.38 8.3-0.03 1.56-0.03 3.14-0.02 4.71-0.41-0.07-1.23-0.2-1.65-0.26-0.19 0.7-0.59 2.09-0.78 2.78-0.37 1.32-0.73 2.64-1.18 3.93-0.06 0.54-0.19 1.62-0.25 2.16-1.23-1.07-2.47-2.12-3.72-3.14 3.38-0.55 1.09-3.46-0.4-4.68-1.29 0.11-2.57 0.22-3.83 0.33-0.05-1-0.09-1.99-0.12-2.99 0.93-0.38 2.8-1.15 3.73-1.53-1.15-0.5-3.45-1.51-4.6-2.02-1.2 4.9-1.36 9.97-1.25 14.99 0.11 5.75 2.85 11.04 5.99 15.71 1.01 1.65 2.97 2.96 2.86 5.11 0.23 5.04 0.2 10.19 1.7 15.07 1.24 3.93 1.88 8.26 4.68 11.48-0.39-0.05-1.17-0.16-1.56-0.21 0.66 3.73 2.6 6.91 5.74 9.04-1.01 1.84 1.37 2.58 2.42 3.63 1.28 3.85 3.78 7.23 7.35 9.23 0.06 1.61 0.06 3.23 0.04 4.85-1.82 3.34-2.04 8.1 0.68 11.04 1.52 1.85 2.13 4.22 3.14 6.37 0.06 0.53 0.17 1.6 0.23 2.14 2.19 2.11 4.08 4.55 6.47 6.46 3.01 1.81 6.26 3.19 9.37 4.83 0.1-0.31 0.31-0.94 0.41-1.25 0.78 3.58 4.65 0.26 6.21 2.48 0.82 2.36 3.53 1.17 5.42 1.34l-0.22 1.09c2.03 0.23 4.04 0.69 6.02 1.25 1.49 0.76 3.03 1.47 4.58 2.16 0.51-0.12 1.54-0.35 2.06-0.46 3.23 3.54 8.71 3.06 13.07 2.78-0.07 0.85-0.22 2.53-0.29 3.37-0.47 0.11-1.42 0.34-1.89 0.45 0.73 0.09 2.18 0.27 2.91 0.35-1.47 1.39-2.81 2.91-3.75 4.7 2.63-2.21 4.51-5.59 8.17-6.28-1.79 3.8-4.22 7.23-6.33 10.85-2.72 7.05-6.15 13.86-7.99 21.22-1.52 5.91-3.39 11.77-4.2 17.83-0.11 3.27-0.11 6.58-1.17 9.72l-0.84 0.13c-0.08 1.77-0.16 3.56-0.29 5.34-2.71 6.03-2.75 12.79-4.45 19.12-1.19 7.09-2.01 14.28-1.3 21.47l-0.95 0.04c-1.75 12.09-0.77 24.35-0.89 36.52 1.17 9.36 1.21 18.81 2.28 28.19 1.12 6.54 0.4 13.24 1.66 19.78-0.54-7-0.18-14.04-1.29-21-1.05-8.33-0.66-16.74-1.78-25.05-0.08-8.3-0.14-16.61 0.18-24.91 1.27-3.65 0.47-7.57 1.15-11.31 1.22 4.34 0.54 8.86 0.76 13.3 0.78 9.59 0.99 19.23 0.79 28.86-0.04 2.71 0.13 5.44 0.67 8.12 0.2 1.12 0.6 3.36 0.79 4.48 1.12-4.2 0.21-8.61 0.64-12.89 1.96 9.02 2.43 18.24 3.12 27.42 0.45 1.32 0.9 2.66 1.4 3.99 0.29 2.13 0.46 4.28 0.57 6.44l1 0.05c-0.09 1.66-0.15 3.35-0.23 5.03l1.44-0.14-0.56 2.08 1.04 0.02c0.21 1.7 0.48 3.4 0.94 5.07 0.79-4.72-0.68-9.35-0.88-14.04l-0.61-0.16c-0.87-3.46-2.23-6.86-2.27-10.47-0.14-6.99-2.09-13.81-1.98-20.82-0.13-4.86-0.37-9.74 0.19-14.58 1.24 3.96 0.31 8.17 1.16 12.19 0.48-2.15 0.72-4.33 0.86-6.52-0.34-5.44-0.01-11.03-2.09-16.19 0-1.33 0.02-2.64 0.07-3.96 1.4-5.33 0.05-10.94 1.47-16.28 0.59 9.1-0.46 18.29 1.11 27.31 0.41 3.31-0.16 6.73 0.94 9.95 0.14 1.73 0.28 3.47 0.42 5.21 0.27-0.75 0.82-2.24 1.09-2.99 0.14-0.02 0.41-0.07 0.55-0.09 0.18 7.17 1.6 14.25 1.56 21.45 0.28 0.13 0.82 0.4 1.09 0.53l0.66-0.16c0.14-4.75-0.67-9.5-0.06-14.25-0.01 7.85 1.25 15.64 1.12 23.49-0.28-2.52-0.34-5.05-0.62-7.56-0.22-0.1-0.66-0.31-0.87-0.41-1.29 1.62-0.55 3.78-0.61 5.67 0.35 4.58-0.17 9.15-0.35 13.72 0.47-1.79 0.82-3.59 1.22-5.38 0.79 6.59 1.9 13.16 2.25 19.81 1.91 10.74 4.97 21.24 7.2 31.92 2.78 15.69 7.02 31.32 14.67 45.39 0.9 1.74 2.3 3.52 1.77 5.62-0.77 3.93-1.17 7.9-1 11.91l1.35-0.12c-0.1-1.84-0.17-3.66-0.26-5.48 0.69 0.15 1.39 0.3 2.11 0.47 0-1.74 0.04-3.48 0.11-5.21 0.35 1.2 0.69 2.4 1.03 3.61 0.95 0.71 1.9 1.44 2.87 2.17-0.03 0.72-0.1 2.14-0.13 2.86 2.93 0.5 4.35 3.22 5.95 5.4 4.14 6.16 8.83 11.92 13.1 17.99 7.06 9.51 13.46 19.73 22.54 27.5 1.34 1.45 3.43 2.71 3.45 4.92 0.7 12.09-0.5 24.24 0.3 36.31 0.74-2.73 0.84-5.57 1.34-8.34 0.3-1.71 0.59-3.41 0.95-5.1 0.39-1.5 0.78-2.99 1.25-4.45 0.22 6.62 0.99 13.45-0.6 19.96-0.69 0.09-2.09 0.25-2.79 0.34-2.34 3.94-5.57 7.17-8.74 10.43-6.85 8.27-14.01 16.28-20.42 24.91 1.79-0.93 3.68-1.68 5.73-1.75-5.45 6.74-13.15 11.25-18.27 18.26-1.9 2.17-6.36 3.67-5.63 6.93l1.4 0.1c3.61-2.47 6.82-5.48 10.16-8.29 0.79-1.3 1.61-2.57 2.49-3.8-0.45 0.76-1.34 2.28-1.79 3.04 0.51 0.07 1.54 0.22 2.05 0.3-0.49 0.21-1.47 0.64-1.96 0.85-3.61 4.9-9.03 7.72-13.49 11.66 0.97 0.04 2.92 0.12 3.89 0.16-0.4 0.29-1.2 0.86-1.61 1.15-3.07 4.54-6.52 8.81-10.12 12.93-0.07 0.52-0.2 1.54-0.27 2.05 0.58-0.04 1.74-0.11 2.32-0.15-0.07-0.42-0.21-1.27-0.28-1.69 3.39-3.68 6.46-7.63 9.94-11.22 0.33 1.11-0.17 3.12 1.6 3.2 3.29-4.87 7.94-8.59 12.58-12.09 1.59-1.54 3.86-1.19 5.87-1.31-1.28 0.82-2.58 1.61-3.86 2.42-0.05 1.11-0.09 2.23-0.12 3.36 0.84-0.37 1.67-0.77 2.48-1.2 6.59-6.67 14.87-11.28 22.42-16.75 0.39 0.43 1.18 1.3 1.57 1.73-3.63 6.44-8.96 11.62-14.62 16.27-6.13 5.87-13.15 10.84-18.53 17.45-4.17 4.98-9.59 8.96-12.68 14.79-0.99 1.38-2.02 2.75-3.03 4.11-2.82 4.5-7.35 8.11-8.26 13.61l1.11-1.76c0.56 0.57 1.13 1.15 1.71 1.75-2.16 2.4-4.05 5.02-6.01 7.59-0.04 0.61-0.13 1.85-0.17 2.46 2.61-4.3 5.64-8.35 9.17-11.95 0.01-0.82 0.03-2.45 0.04-3.27-0.35 0.9-1.06 2.7-1.41 3.6-0.56-0.59-1.1-1.16-1.63-1.73 2.01-1.75 3.59-3.91 4.66-6.34 0.52 0.83 1.05 1.67 1.6 2.51 2.53-4.46 6.17-8.16 8.65-12.66 0.62-0.21 1.88-0.65 2.51-0.86-2 3.18-4.12 6.3-6.43 9.27-0.01 0.85-0.01 1.7 0.01 2.57-3 4.19-5.55 8.69-8.92 12.59-0.08 0.61-0.23 1.81-0.31 2.41 1.85-2.27 3.72-4.54 5.73-6.67-0.76 2.63-1.98 5.1-3.03 7.63 4.26-3.98 6.58-9.46 9.62-14.34 3.1-5.79 7.7-10.54 11.31-15.98 3.16-4.79 6.83-9.21 10.2-13.84 4.24-5.22 7.36-11.27 12.27-15.95 0.17-0.73 0.51-2.2 0.68-2.93 0.17 0.77 0.52 2.31 0.69 3.08 1.12-0.83 2.26-1.64 3.4-2.44-3.15 5.55-5.56 11.51-9.29 16.73-3.41 6.99-8.87 12.66-12.58 19.47-3.67 8.09-9.6 14.84-14.33 22.31-5.91 7.56-10.22 16.13-14.75 24.53 2.55-3.75 4.4-7.92 6.65-11.84 3.48-6.36 8.17-11.9 12.25-17.86 2.72-3.73 4.97-7.93 8.71-10.78-0.27 1.71-0.07 3.66-1.23 5.11-3.8 5.4-7.07 11.17-9.65 17.26 1.04-0.24 2.08-0.46 3.14-0.66 1.26-5.02 4.2-9.36 7.13-13.54 0.08 0.81 0.17 1.64 0.27 2.47-2.09 3.13-3.97 6.38-5.6 9.77 2.18-0.04 3.6-1.56 4.94-3.08-0.9 3.42-2.11 6.91-5.07 9.11-0.12 2.39-0.73 4.73-2.35 6.57-0.05-2.01-0.03-4.02-0.16-6.01-0.95 3.24-0.63 6.68-1.47 9.96-1.11 5.6-3.12 10.97-5.04 16.34-1.2 5.5-2.88 10.88-4.67 16.21-0.33 1.01-0.64 2.03-0.93 3.06-0.34 1.33-0.66 2.66-0.97 4.02-0.88 2.12 0.32 4.26 0.67 6.36 0.31-1.84 0.56-3.69 0.81-5.53 0.55-1.27 1.07-2.55 1.63-3.79 0.49-1.42 1.01-2.81 1.53-4.2 0.68-1.76 1.34-3.52 1.98-5.28l0.92-0.24c-0.11-0.52-0.34-1.55-0.45-2.07 0.96 0.08 1.93 0.17 2.91 0.28 0.75-2 1.53-3.99 2.42-5.92 1.01 6.44-3.14 11.72-5.54 17.29-0.9 2.11-1.81 4.22-2.71 6.33-0.43 0.95-0.85 1.92-1.25 2.89 3-2.78 4.83-6.45 6.37-10.17 1.1 8.41-8.34 13.2-9.28 21.27 2.48-3.81 4.95-7.62 7.08-11.64 0.18 2.09 0.42 4.25 1.16 6.25 0.09 2.87 0.09 5.75 0.13 8.63l-1.31 0.08c0.23 1.6 0.44 3.19 0.73 4.82 0.15-0.75 0.46-2.25 0.61-3h1.07c-0.09-0.73-0.26-2.18-0.35-2.91l1.24-0.06c-0.01-4.13 0-8.25-0.03-12.37 0.47 0.14 1.42 0.41 1.9 0.55 0.31 2.49 0.06 5.03-0.65 7.46-0.25 4.11-0.39 8.25-0.04 12.37 1.02-7.14 1.75-14.34 1.87-21.55 0.2-3.29 2.17-6.09 3.84-8.81-0.59-3.36 0.68-6.33 3.32-8.41-0.99 2.52-2.07 5.01-2.86 7.61 0.96-0.82 1.92-1.64 2.89-2.45-0.12 1.13-0.23 2.26-0.33 3.41-0.65 0.82-1.29 1.65-1.92 2.49-0.06 1.69-0.13 3.4-0.27 5.1-0.56 1.86-0.86 3.78-1.08 5.72 0.54 0.02 1.61 0.06 2.14 0.07 0.45-3.32 1.25-6.59 1.36-9.95 1.63-2.43 3.3-4.84 5.21-7.06-0.75 2.74-1.87 5.4-2.18 8.26 0.37 0.84 1.12 2.5 1.49 3.33 0.11-0.93 0.35-2.8 0.46-3.74l0.56-0.13c0.42-2.22 1.11-4.37 1.93-6.46 0.28-4.37 2.67-8.26 2.64-12.68 0.7-5.26 5.6-7.97 8.64-11.77 0.73-2.74 2.88-4.6 5.12-6.16 0.13-0.65 0.39-1.96 0.52-2.62 0.17 1.22 0.33 2.44 0.51 3.68l-0.91-0.03c-0.42 2.47-1.6 4.71-3.13 6.68-0.1 1.92-0.17 3.84-0.22 5.78 0.69-0.07 2.07-0.2 2.76-0.27 2.69-7.48 7.2-14.06 11.45-20.7 0.01 1.33 0.02 3.99 0.03 5.33 0.71-1.52 1.43-3.04 2.16-4.54-0.1 1.26-0.19 2.54-0.26 3.83l-0.66 0.06c-0.63 3.12-2.11 5.97-3.91 8.58-1.25 2.41-2.69 4.87-2.47 7.72 2.78-3.5 4.8-7.51 7.41-11.13 0.75-1.3 1.49-2.6 2.23-3.91 0.35-0.17 1.06-0.52 1.41-0.69 0.55 5.93-1.33 11.77 0.15 17.64 0.5-0.02 1.51-0.06 2.01-0.08-0.05-0.8-0.17-2.39-0.23-3.19 0.61-0.01 1.81-0.02 2.42-0.03-0.35 2.28-0.86 4.51-1.33 6.77 2.43-0.58 1.94-3.29 2.44-5.14 0.39-2.33 0.67-4.66 0.99-6.99 0.6-0.86 1.21-1.72 1.83-2.56-0.74 8.08-3.44 15.88-6.11 23.5-0.14 2.35-0.2 4.69-0.14 7.06 0.62-2.01 1.13-4.05 1.74-6.05 0.12-0.51 0.34-1.54 0.46-2.05 2.43-6.16 3.77-12.73 6.75-18.66 0.09 2.35 0.07 4.71 0.14 7.07 1.21-3.44 2.43-6.89 3.23-10.44 2.96-7.17 6.53-14.08 9.01-21.44 0.44-0.02 1.32-0.05 1.76-0.07 0.04 2.63-0.2 5.3-1.53 7.64-0.38 1.5-0.65 3.03-0.81 4.59 0.76-1.36 1.44-2.75 2.13-4.14 0.1 0.97 0.31 2.91 0.42 3.88 0.73-1.79 1.48-3.55 2.21-5.33 0.73-1.93 1.46-3.85 2.22-5.76 1.39-5.65 4.3-10.74 6.33-16.15 1.53-3.94 3.71-7.58 6.1-11.06-0.03-0.66-0.09-1.99-0.12-2.65 0.52-0.25 1.54-0.76 2.06-1.02 0.42-1.25 0.85-2.49 1.28-3.73 0.47-0.09 1.41-0.27 1.88-0.37-0.29 1.55-0.56 3.12-0.87 4.67-0.72 3.65-2.27 7.1-2.47 10.85 0.92-1.59 1.9-3.13 2.69-4.78 0.54-1.06 1.14-2.14 2.34-2.56 3.58-1.55 3.84-6.04 4.06-9.41-0.1-3.97 1.39-7.68 2.25-11.49 0.52-0.04 1.56-0.13 2.07-0.18-0.45 1.17-0.88 2.36-1.32 3.54-0.05 1.19-0.08 2.4-0.1 3.61-0.49-0.13-1.47-0.39-1.95-0.52-0.04 1.17-0.12 3.51-0.15 4.68l1.17-0.18c0.28 2.77-0.86 6.31 1.84 8.2 0.07-0.62 0.21-1.87 0.28-2.5 0.25-0.04 0.73-0.12 0.98-0.16 0 2.13 0 4.26 0.01 6.4l-1.74-0.01c0.45 0.88 1.36 2.64 1.81 3.52-0.28 0.4-0.82 1.2-1.1 1.6-0.37 4.44 0.6 8.9-0.11 13.34-0.85 5.05-1.69 10.12-2 15.25-0.99 4.26-3.74 9.44-0.41 13.36 0.25-1.89 0.43-3.77 0.57-5.65 0.61-1.28 1.22-2.54 1.86-3.79v-2.31c0.97-0.83 1.95-1.64 2.94-2.45 0.39-1.6 0.82-3.2 1.23-4.78l1.09-0.05c-0.04-0.37-0.12-1.12-0.16-1.49 0.44-1.03 0.88-2.05 1.34-3.07 0.29-1.02 0.6-2.03 0.9-3.03 1.06-2.35 1.04-5.54 3.38-7.04 0.19 2.02 0.19 4.07 0.2 6.12-1.35 4.01-2.57 8.09-4.66 11.8-0.83 1.88-2.83 4.55 0.04 6.04 2.25-4.58 4.11-9.32 5.74-14.15 0.22 3.04-1.15 5.78-2.32 8.49-2.04 7.87-6.99 14.57-9.31 22.3 2.9-3.47 4.42-7.91 7.81-10.98-0.09 1.61-0.2 3.23-0.28 4.86 1.68-2.23 3.28-4.52 4.82-6.85 0.68-1.05 1.38-2.08 2.1-3.09l0.26-0.74c1.75-2.57 3.41-5.18 5.24-7.69-0.31 3.03-0.98 6.03-1.69 9-0.77 1.01-1.53 2.03-2.28 3.07-0.23 0.53-0.7 1.61-0.93 2.15 0.68-0.78 2.04-2.35 2.72-3.14-0.05 1.38-0.17 4.13-0.22 5.5 0.85-2.85 1.65-5.7 2.66-8.49 0.48-0.97 0.98-1.91 1.49-2.85-0.05 0.89-0.14 2.66-0.19 3.55 0.79-0.21 1.58-0.4 2.39-0.59-0.82 21.18-11.36 41.09-25.66 56.32-6.38-1.48-12.68-3.35-19.14-4.44-4.05-0.83-8.01 0.75-11.88 1.71-11.03 3-22.29 5.23-33.18 8.71 0.97 1.42 1.97 2.87 2.96 4.3-6.841 2.825-14.226 3.358-21.481 4.368-0.565 0.187-1.156 0.268-1.751 0.254-0.019 3e-3 -0.038 5e-3 -0.057 8e-3 1e-3 -4e-3 1e-3 -7e-3 2e-3 -0.011-0.623-0.02-1.246-0.141-1.844-0.348-6.611-0.639-13.51 0.01-19.488-3.422-3.8-0.06-7.6-0.21-11.38 0.14-8.26 2.48-13.16 10.18-17.26 17.23-11.14-2.04-22.36-3.61-33.64-4.59-7.67-0.21-15.34 0-23.01-0.09-10.68-0.4-21.23 1.62-31.84 2.49-8.97 0.62-17.48 3.74-26.22 5.58-12.62 2.57-24.39 7.98-36.51 12.15-9.59 4.14-18.9 8.92-28.24 13.6-10.48 6.86-21.59 12.79-31.47 20.53-6.19 4.89-13.14 8.71-19.23 13.74-9.93 7.32-19.23 15.44-29.05 22.9-27.71 21.4-54.84 43.69-79.31 68.79-8.1 8.32-17.43 15.27-26.41 22.59-7.69 5.82-16.03 10.69-24.06 16.01-6.75 4.16-13.07 9.01-20.03 12.83-11.87 6.74-23.46 13.94-35.26 20.8-24.67 13.77-49.44 27.38-73.27 42.59-6.89 3.95-12.94 9.12-19.64 13.36-10.03 6.65-19.83 13.64-29.85 20.31-16.44 10.12-32.51 20.84-48.99 30.91-16.19 10.65-32.65 21.04-47.5 33.55-7.07 5.55-12.76 12.56-19.01 18.97-4.5 4.41-7.23 10.17-10.78 15.3-6.13 9.19-11.23 19-15.84 29.02-2.32 8.84-5.69 17.47-6.46 26.67-1.94 14.05 0.44 28.2 3.44 41.93 4.5 13.34 12.65 24.95 19.66 37.05 10.9 16.14 24.14 30.5 36.2 45.75 7.91 8.76 16.3 17.08 24.39 25.67 44.64 47.38 96.2 87.37 146.23 128.78 15.48 12.47 31 24.91 46.61 37.23 32.49 26.45 64.18 53.84 95.8 81.33 12.86 11.6 26.83 21.84 40.49 32.44-7.51 13.75-13.21 28.72-15.36 44.29-3.72 4.05-6.42 9.09-7.75 14.44-1.09 3.92-0.22 8.02-0.01 12.02-6.22 1.51-11.93 4.74-16.51 9.19-5.28 5.74-7.2 13.57-9.17 20.9-2.54 7.93-5.31 15.82-7.12 23.97-1.3 7.69 3.19 15.28 9.15 19.84 6.65 5.05 13.55 9.78 20.07 15.02 8.34 6.5 16.49 13.86 26.68 17.3 8.97 1.74 18.53 3.05 27.38-0.02 4.95-1.92 9.1-5.35 13.68-7.97 4.83 4.29 10.04 8.19 15.79 11.17 5.18 3.06 11.41 5.22 17.43 3.57 6.76-0.88 12.27-5.29 17.04-9.85 3.49-3.99 7.58-7.48 10.41-12.01 7.49 1.51 15.38 2.76 22.85 0.48 6.01-1.67 10.27-6.49 14.67-10.59-3.2 9.58-6.85 19.01-10.74 28.35-2.47 6.47-4.84 12.99-7.73 19.3-4.45 10.22-8.18 20.76-13.08 30.78-5.31 10.33-9.42 21.21-14.43 31.68-10.61 22.61-20.47 45.61-32.53 67.51-2.81 4.73-6.37 8.95-9.56 13.44-5.2 6.49-8.58 14.16-12.74 21.31-10.43 20.24-19.36 41.23-27.13 62.63-3.04 9.61-6.85 19.33-6.51 29.6-2.98 1.59-5.79 3.5-8.39 5.68-11.1 9.17-21.52 19.15-31.22 29.8-9.53 10.51-19.48 20.76-27.7 32.36-2.12 3.53-5.37 8.08-2.99 12.22 4.4 5.07 11.01 7.06 17.19 9 10.45 5.29 21.46 10.49 33.37 10.97 5.56 0.43 7.29-5.9 11.52-8.12 8.79-4.57 18.95-4.13 28.57-4.12 17.74 0.49 35.84 1.85 53.19-2.78 17.59 6.12 34.39 14.34 52.19 19.9 4.86 41.73 7.22 83.7 10.11 125.6 2.23 27.36 3.85 54.78 7.15 82.04 2.18 22.69 5.18 45.28 8.37 67.85 3.38 26.45 7.97 52.73 11.28 79.2 3.27 21.35 6.54 42.71 11.07 63.85 2.14 12.42 5.9 24.5 7.75 36.98 2.33 13.96 4.64 27.92 6.67 41.94 3.61 24.56 5.5 49.35 6.4 74.17 1.36 25.64-0.01 51.33-1.79 76.92-1.43 22.1-4.73 44.02-7.87 65.93-6.13 34.25-13.84 68.3-16.86 103.03-1.82 13.59-1.73 27.33-2.3 41.02-0.82 14.34 0.43 28.68 0.42 43.03 1.49 37.33 3.88 74.63 6.15 111.93 1.35 27.19 4.38 54.25 8.32 81.19 3.23 19.61 6.52 39.21 9.83 58.82 8.41 46.96 14.21 94.38 23.96 141.11 5.28 26.32 10.51 52.65 15.41 79.05 3.51 20.9 6.53 41.88 10.15 62.77 3.8 23.38 6.83 46.88 10.73 70.26 2.01 15 3.86 30.03 5.91 45.04 3.34 24.13 3.53 48.61 1.67 72.87-1.6 11.29-1.69 22.85 0.53 34.08 0.96 6.41 5.07 11.73 6.91 17.87 0.13 4.02-0.79 8.02-1.42 12.02-2.61 13.51-4.19 27.32-3.34 41.11 0.61 11.73 0.83 23.81 5.17 34.92 1.12 4.98 5.01 8.47 8.07 12.33 3.01 3.88 7.94 5.32 12.01 7.8 4.62 2.8 9.99 3.76 15.12 5.24 11.22 3.79 23.26 2.32 34.89 3.31 8.94 6.76 17.32 14.88 28.22 18.39 7.85 3.06 16.38 3.16 24.61 4.36 3.53 3.2 7.22 6.33 11.76 8.09 3.05 1.81 6.65 0.67 9.74-0.43 4.14-1.57 7.87-4.08 11.08-7.1 3.9-0.08 7.82-0.07 11.74-0.04 2.3 2.62 4.56 5.72 8.06 6.82 5.19 1.24 10.71 0.67 15.72-1.09 3.54-1.33 7.26-3.12 9.09-6.62 3.26-0.48 6.57-1.01 9.88-0.72 3.01 2.23 5.59 5.11 8.98 6.87 7.68 3.56 16.82 1.3 23.23-3.82 4.52 1.53 9.34 1.63 13.95 2.76 2.85 1.53 5.49 3.52 8.7 4.36 5.22 2.28 10.86 0.19 16.03-1.18 3.32-0.69 5.02-4.21 8.29-4.92 4.93-1.19 9.26-3.92 13.87-5.92 3.05 2.13 6.4 4.01 10.2 4.36 5.91 0.6 11.95 2.54 17.85 0.84 5.73-1.54 11.98-2.32 16.56-6.45 9.13-5.4 15.45-14.95 17.39-25.32 0.81-8.91-3-18.18-10.22-23.56-6.9-4.67-13.33-9.98-19.57-15.47-7.04-5.37-15.21-9.16-21.77-15.17-13.3-11.79-27.76-22.14-41.7-33.12-18.25-14.34-36.08-29.2-53.95-43.99-13.57-11.11-26.24-23.25-39.38-34.83-7.42-5.94-14.78-11.95-21.99-18.11-2.29-4.95-2.6-10.56-3.92-15.79-8.8-38.17-15.14-76.91-18.62-115.92-2.29-24.48-3.12-49.07-4.83-73.6-1.19-28.46-2.66-56.94-2.46-85.43-0.08-9.34 0.58-18.66 0.34-27.99-0.39-26.34 1.83-52.62 2.08-78.94 1.59-29.33 1.99-58.71 4.1-88.01 0.9-22.35 2-44.68 3.34-67 1.48-26.01 1.88-52.05 2.15-78.08 0.18-15.98-0.61-31.93-0.33-47.9-0.65-26.35-0.24-52.73-0.32-79.08 0.98-23.16 3.06-46.39 8.33-69 2.52-13.44 6.27-26.6 10.33-39.64 2.59-8.9 6.66-17.31 8.75-26.35 2.5-10.26 6.54-20.08 8.61-30.43 5.82-24.11 8.13-48.87 9.94-73.55 2.94-51.04 6.31-102.05 9.66-153.06 1.68-26.39 3.49-52.77 6.24-79.06 2.47-26.3 5.02-52.59 8.01-78.83 1.83-23.98 3.39-47.98 4.32-72.01 2.04-49.69 4.79-99.34 6.86-149.03 0.77-13.92 0.63-27.87 1.65-41.77 10.55 3.13 20 9.07 30.1 13.38 4.65 7.27 4.55 16.14 5.64 24.41 2.85 25.94 4.38 52.03 7.83 77.91 7.99 73.71 21.7 146.68 37.72 219.03 4.2 21.07 9.46 41.92 13.6 63.01 1.35 6.6 4.68 12.59 6.5 19.07 5.41 31.54 7.67 63.56 13.8 94.99 2.44 8.79 3.09 17.93 4.4 26.94 2.01 14.04 3.9 28.11 6.14 42.13 2.07 15.3 5.68 30.33 9.15 45.36 4.37 19.64 10.55 38.83 17.63 57.65 3.43 7.73 7.66 15.09 11.08 22.85 2.76 6.63 7.15 12.37 10.55 18.68 4.43 7.53 7.82 15.68 12.99 22.79 3.64 5.11 5.69 11.1 8.3 16.77 1.43 3.12 2.79 6.33 3.45 9.75 2.37 11.37 5.14 22.67 6.98 34.16 8.01 44.28 16.7 88.45 27.47 132.15 5.52 24.03 11.54 47.96 18.45 71.63 5.67 19.05 11.26 38.11 16.59 57.26 4.11 14.1 8.81 28.04 12.67 42.23 6.11 19.74 12.03 39.54 17.8 59.39 6.33 21.13 11.41 42.6 17.36 63.84 12.45 43.52 23.39 87.56 30.39 132.32 3.13 20.87 4.27 41.96 6.77 62.91 1.81 15.96 0.58 32.04 0.55 48.06-0.46 5.21 2.64 9.7 4.39 14.41 5.65 11.84 3.22 25.38 1.01 37.77-4.02 22.07-6.17 45.2 0.1 67.07 2.05 4.55 3.77 9.32 6.35 13.64 3.71 4.61 7.68 9.03 11.75 13.34 2.71 3.07 6.71 4.32 10.35 5.95 1.26 9.61 2.47 19.23 3.16 28.92 0.86 11.39 2.79 22.65 4.46 33.94 0.8 5.85 3.44 11.21 5.5 16.7 2.08 4.46 3.39 9.47 6.84 13.18 2.97 3.32 5.58 7.13 9.51 9.46 4.4 2.65 8.47 6.1 13.58 7.35 4.86 1.23 9.57 3.51 14.69 3.37 5.26-0.13 10.62 1 15.81-0.37 5.87-1.58 12.01-2.53 17.43-5.45 9.28-3.88 17.48-10.5 27.65-12.05 12.27-2.63 24.83 0.2 37.18-1.52 12.66-1 24.87-4.72 36.86-8.7 4.58-2 9.24 0.96 13.94 0.28 4.96-0.64 11.15-1.05 13.29-6.42 5.65 3.74 12.79 5.66 19.5 4.09 2.16-1.85 4.43-3.6 6.16-5.86 4.57-5.83 5.77-14.1 3.14-20.99-1.66-4.74-3.29-9.63-6.55-13.52-3.15-3.81-6.37-7.85-11.01-9.87-2.88-1.69-6.39-2.01-9.17-3.73-6.41-7.78-11.58-16.51-17.79-24.44-6.26-8.37-13.23-16.22-18.91-25.01-10.46-14.78-18.57-31.01-27.02-46.97-5.19-9.12-10.54-18.14-15.67-27.28-4.05-7.87-8.41-15.74-10.57-24.36 0.07-5.04 2.26-9.85 1.86-14.94-1.05-19.05-7.7-37.14-13.88-55-7.26-18.59-10.41-38.4-13.66-57.98-4.24-26.84-6.17-53.96-8.92-80.97-1.68-24.7-5.57-49.24-6.22-74-0.56-25.96-0.42-51.94-1.7-77.88-1.12-26.74-1.18-53.5-2.58-80.23-0.67-12.54-0.31-25.1-0.95-37.63-1.13-23.42-1.73-46.86-2.39-70.28-0.82-27.76-4.83-55.28-9.29-82.64-4.03-24.36-6.9-48.91-11.75-73.13-2.19-11.05-3.89-22.21-6.86-33.08-2.72-10.02-5.18-20.11-8-30.08-2.98-8.93-6.19-17.77-9.27-26.65-10.55-27.4-24.04-53.59-33.71-81.33-6.62-19.75-12.22-40.02-13.65-60.88-2.52-27.65-2.85-55.44-3.29-83.18 0-18.32 0.93-36.63 1.94-54.91 0.41-10.67 2.01-21.35 0.68-32-1.98-18.07 1.77-36.04 2.41-54.07 1.25-25.03 4.08-49.95 4.94-74.99 0.47-14.05 2.02-28.04 2.23-42.09 0.32-17.62 1.32-35.22 1.13-52.84-0.09-22.32 0.41-44.64-0.77-66.93-0.65-15.03-1-30.08-1.96-45.09 14.16-1.83 27.49-7.13 41.31-10.44 11.49-3.63 22.68-8.13 33.83-12.69 1.6 1.49 3.05 3.38 5.23 4.13 2.78 0.6 5.15-1.23 7.38-2.57 2.77-4.1 7.57-5.95 11.11-9.23 8.11-7.21 16.18-15.19 20.23-25.47 1.25-4.21-2.01-8-4.57-10.96-8.66-8.41-17.94-16.16-27.7-23.25-13.91-9.79-26.82-20.9-39.39-32.33-0.02-3.71-0.24-7.41-0.69-11.06-3.74-25.82-10.6-51.04-17.73-76.09-1.23-4.6-3.92-8.57-6.11-12.73-7.14-12.51-10.78-26.57-14.51-40.36-6.55-25.01-12.32-50.23-20.22-74.86-4.58-13.19-9.27-26.38-12.83-39.88 3.76-3.72 7.16-7.77 10.87-11.54 6.89-6.71 12.7-14.4 19.39-21.29 8.5-8.69 15.93-18.33 23.33-27.95 8.31-10.68 15.76-22.02 25.11-31.85 8.25-8.43 14.61-18.87 24.66-25.37 5.84-4.14 11.96-7.92 17.41-12.58 5.24-4.56 11.01-8.43 16.71-12.38 9.11-6.13 17.97-12.63 26.91-19 20.89-14.67 42.25-28.68 64.04-41.97 17.11-9.96 33.64-20.87 50.2-31.7 19.9-12.28 39.85-24.53 58.71-38.39 19.86-13.82 38.46-29.38 55.89-46.13 8.3-9.04 16.62-18.06 24.89-27.12 6.23-7.81 12.03-15.94 18.12-23.85 3.81-4.63 5.57-10.46 8.17-15.77 2.48-6.08 6.18-11.8 7.05-18.42 0.9-6.62 1.51-13.28 2.48-19.88 1.589-9.249 0.299-18.659-0.411-27.919zm-357.71-1063.1c-0.14 0.78-0.4 2.35-0.53 3.13-0.39-1.55-0.75-3.09-1.09-4.62l1.41 0.03c-0.11-2.87-0.19-5.79 0.7-8.54 0.42 3.3 0.77 6.81-0.49 10zm5.4-21.96c-1.16 4.87-0.35 9.97-1.6 14.83-0.34-5.25-0.23-10.54 0.61-15.74 0.23-4.36 0.69-8.72 1.97-12.9 0.51 4.63-1 9.17-0.98 13.81zm-6.33-312.59c-1.2 4.82-5.44-0.48-5.94-2.97 0.94 0.08 2.81 0.22 3.75 0.29l0.1-1.79c1.53 1.46 3.05 2.93 4.55 4.43-0.61 0.01-1.84 0.03-2.46 0.04zm19.1 54.05c1.3-0.17 1.88 2.09 1.04 2.9-1.38 0.18-1.93-2.09-1.04-2.9zm-0.9 6.01c-1.4-0.41-1.73-2.93-1-4.06 1.45 0.36 1.72 2.91 1 4.06zm-0.25-9.43c-1.68-4.12-2.46-8.56-2.51-13 1.86 4.06 2.76 8.53 2.51 13zm-0.99 154.49c1.83-16.77-0.14-33.67 1.15-50.45 1.09 1.45 1.59 3.08 1.49 4.89 0.01 11.3-0.25 22.6 0.1 33.91 0 2.71 0.34 5.57-0.81 8.13-0.32 5.29-0.04 10.59-0.19 15.89-0.02 7.05-1.18 14.02-1.84 21.03-0.22 3.61 0.02 7.29-0.91 10.82-0.24 2.08-0.44 4.17-1.04 6.18-0.18 3.22-0.72 6.39-1.53 9.51 0.49 0.12 1.48 0.37 1.97 0.5-0.44 0.12-1.31 0.36-1.75 0.48 0.04 2.32 0.04 4.65-0.12 6.98-1.72-4.79-0.1-9.76 0.16-14.61-0.74 1.51-1.45 3.04-2.13 4.57 0.11-1.81 0.25-3.62 0.47-5.42 1.23-6.25 0.95-12.76 2.4-19.01 0.61-11.15 2.23-22.23 2.58-33.4zm-7.15-180.32c0.75 3.89 2.88 7.35 3.66 11.23 0.32 3.26 0.08 6.56 0.12 9.83-0.42-1.82-0.78-3.65-1.13-5.48-0.36-1.45-0.71-2.91-0.97-4.36l-0.87-0.01v-2.41c-0.47-0.99-0.9-1.98-1.32-2.97-0.41-1.03-0.8-2.05-1.19-3.07-0.22-1.53-0.4-3.08-0.51-4.61l-0.8 0.02c-0.51-1.6-1.01-3.18-1.43-4.79 2.26 1.58 4.11 3.77 4.44 6.62zm-4.35-21.35c-0.51 1.51-3.07 0.7-2.71-0.8 0.43-1.57 3.04-0.71 2.71 0.8zm-5.1-22.33c1.11 0.76 2.24 1.52 3.4 2.26-0.04 1-0.06 1.99-0.06 2.99-1.69-1.3-3.77-1.51-5.8-1.54-0.33-0.3-1.01-0.9-1.35-1.21 0.03 1.07 0.07 2.13 0.13 3.2 1.67 0.18 3.4 0.37 5.03 0.93-2.07 0.22-4.12 0.26-6.17 0.29 0.1-0.81 0.29-2.44 0.39-3.25-1.94-0.4-3.89-0.75-5.82-1.05-0.34 1.68-1.7 2.3-3.15 2.73-0.51-1.14-0.98-2.27-1.46-3.39 4.71-2.01 9.78-2.58 14.86-1.96zm-18.3-56.95c1.01-0.07 3.05-0.22 4.06-0.29-0.33 2.85-1.31 5.53-2.6 8.07-1.75 0.47-3.47 0.97-5.2 1.41 1.44-2.98 2.77-6.02 3.74-9.19zm-2.76 25.47c-0.29 3.09-3.16 4.83-5.85 5.6-1.92 0.02-1.41-2.52-2.07-3.73 2.62-0.65 5.24-1.38 7.92-1.87zm-4.77-14.73c-0.78 0.38-1.51 0.78-2.25 1.18-1.61-1.84-4.29-0.88-6.37-1.08 1.76-0.83 3.51-1.73 5.14-2.84 0.54-0.06 1.6-0.16 2.13-0.22 1.45-1.81 3.02-3.5 4.74-5.07-0.24 3-1.85 5.55-3.39 8.03zm-10.28-0.43c0.15-0.47 0.46-1.42 0.62-1.89 2.11-2.09 4.25-4.26 7.09-5.36-0.13 0.58-0.38 1.75-0.5 2.34-1.34 1.06-2.66 2.14-3.95 3.24-1.11 0.55-2.19 1.12-3.26 1.67zm10.12-19.13c0.83-0.25 2.5-0.75 3.33-0.99-0.8 1.44-1.59 2.88-2.38 4.31-5.04 3.3-8.25 8.9-14.03 11.11-0.3-1.06-0.53-2.12-0.79-3.18 4.72-3.62 8.93-7.91 13.87-11.25zm-11.65 2.61c2.93-2.35 6-4.53 9.12-6.64-0.03 0.65-0.09 1.94-0.11 2.59-3.48 2.37-6.55 5.28-9.11 8.6 0.02-1.52 0.05-3.03 0.1-4.55zm-1.64-10.39c-0.86 2.24-1.52 4.55-2.15 6.86-0.33 2.31-0.87 4.58-1.35 6.86-1.04-1.69-2.23-3.29-2.99-5.11-0.26-2.08-0.02-4.17 0.06-6.24 2.32-2.37 4.7-4.69 7.26-6.81-0.25 1.49-0.46 2.98-0.83 4.44zm-6.11-12.59c0.95-0.02 2.86-0.05 3.81-0.07 0.04 1.08 0.12 3.23 0.15 4.31l-1.12-0.27c-0.51 1.53-1.04 3.05-1.51 4.58-0.83-2.07-1.72-4.1-2.67-6.1 0.33-0.61 1-1.84 1.34-2.45zm-3.65 7.56c0.31-0.64 0.95-1.93 1.27-2.58 0.19 2.96 0.15 5.92 0.07 8.88-0.97 0.16-1.91 0.32-2.83 0.48-0.47-0.93-0.92-1.86-1.34-2.78 0.92-1.33 1.87-2.67 2.83-4zm-4.5-13.78c-0.08 2.25-0.11 4.51-0.16 6.77-0.48 1.26-0.93 2.53-1.34 3.8-0.17 0.02-0.5 0.06-0.66 0.08 0.13-3.52 0.02-7.03-0.21-10.54 0.59-0.02 1.78-0.08 2.37-0.11zm-76.77-26.98c-0.73-1.21-1.42-2.43-2.05-3.67 1.23-0.06 3.7-0.18 4.93-0.23-0.12 0.8-0.38 2.41-0.51 3.22 1.66-0.01 3.33 0 5.02 0.01-0.51 0.3-1.53 0.88-2.04 1.18 0.06 0.5 0.18 1.52 0.24 2.03-1.16-0.28-2.31-0.56-3.43-0.86-1.72-0.28-3.41-0.56-5.08-0.92 0.73-0.19 2.19-0.57 2.92-0.76zm-27.27-17.79c-0.04 0.38-0.14 1.13-0.18 1.51 1.3 1.05 2.52 2.21 3.68 3.44 0.59-0.3 1.75-0.89 2.34-1.18-0.95-0.93-1.87-1.85-2.78-2.78 1.07 0.08 2.15 0.17 3.25 0.26 0.83 0.78 1.68 1.54 2.55 2.31-0.03 1.96-0.09 3.94-0.47 5.87-0.18 3.07-2.14 5.41-4.22 7.48-0.92-2.12-1.4-4.37-1.43-6.67-1.64-1.96-3.36-3.84-5.14-5.67 0.51-0.64 1.52-1.91 2.02-2.55-0.88-0.02-2.65-0.06-3.53-0.08-0.19-0.53-0.58-1.58-0.77-2.11 1.54 0.05 3.11 0.11 4.68 0.17zm-7.3 14.27c-1.5 0.36-2.36-2.18-1.36-3.12 1.44-0.31 2.17 2.16 1.36 3.12zm-2.01-14.1c0.81 1.13 0.72 2.07-0.27 2.83-2.77 0.31-2.23-5.28 0.27-2.83zm-8.76 1.8c0.8-0.78 1.65-1.53 2.53-2.26 3.03 1.04 2.42 4.25 2.39 6.81 1.86-0.26 4.02-0.27 4.78-2.4 0.27 1.06 0.56 2.11 0.87 3.16-1.61-0.2-3.21-0.39-4.8-0.58 0.13 1.68 0.27 3.36 0.42 5.05-0.73-0.88-1.44-1.76-2.13-2.64-1.32-0.75-2.61-1.52-3.88-2.3-0.1-1.61-0.28-3.22-0.18-4.84zm-561.64 95.29c0.89 1.01 1.78 2.03 2.67 3.06 0.01 1.26 0.02 2.53 0.02 3.8-1.89-1.82-2.53-4.33-2.69-6.86zm79.55 218.09c-1.87 13.47-0.28 27.11-1.95 40.6-1.41-8.72-0.97-17.61-1-26.4-0.21-5.37 1.41-10.58 1.17-15.95 1.48-0.08 2.07 0.5 1.78 1.75zm13.61 76.83c-1.45-0.44-1.74-2.98-1.09-4.2 1.39 0.47 1.75 2.97 1.09 4.2zm5.23-7.36c-0.36-1.13-0.71-2.26-1.03-3.38-1.56-2.82-2.44-5.91-3.32-8.98-0.69-8.41-0.35-16.87-0.46-25.29 1.93 5.94 3.79 11.99 3.89 18.31 0.06 6.46 1.56 12.86 0.92 19.34zm-3.05-138.8c0.53-1.34 1.06-2.68 1.6-4.01 0.98-0.06 1.97-0.12 2.97-0.17 0.63 1.76 0.84 3.62 0.85 5.5-1.86-0.25-3.66-0.74-5.42-1.32zm4.15-5.19c0.01-1.55 0.03-3.09 0.09-4.63 1.83 1.95 3.49 4.06 4.94 6.32-1.7-0.53-3.37-1.12-5.03-1.69zm1.99-3.97c-0.05-0.58-0.14-1.72-0.19-2.3 1.36 0.64 2.72 1.28 4.1 1.92 0.19 1.09 0.4 2.19 0.61 3.29-1.51-0.98-3.02-1.96-4.52-2.91zm18.64 467.16c-0.52-0.54-1.01-1.08-1.5-1.6 3.53-3.13 6.24-7.05 9.86-10.07-2.56 4.06-6.31 7.28-8.36 11.67zm43.55-96.9c0.04-2.19 0.08-4.37 0.25-6.54 1.14-3.38 0.52-6.96 0.52-10.43 1.12 5.55 1.06 11.24 1.1 16.88-0.47 0.03-1.4 0.07-1.87 0.09zm5.18-3.11c-0.47-4.46-0.02-8.94-0.57-13.39-0.73-3.4-0.65-6.91-0.54-10.36 0.62 7.85 3.71 16.02 1.11 23.75zm3.2-16.34c-0.47-2.45-1-4.88-1.62-7.29 1.03 0.35 2.08 0.71 3.13 1.07-0.28 2.1 0.66 4.9-1.51 6.22zm4.51 12.3c-0.56 0.06-1.67 0.18-2.22 0.24 0.22-1.11 0.45-2.21 0.69-3.31-0.4 0.11-1.22 0.32-1.63 0.42 0.23-3.55 0.28-7.11 0.28-10.67 0.73 0.13 2.2 0.39 2.94 0.52 0.22 4.26 0.04 8.53-0.06 12.8zm62.28-584.39c-1.65 1.09-1.78-1.67-0.44-2.04 1.64-1.09 1.75 1.65 0.44 2.04zm-229.4 1577.8c-1.64 9.46-4.28 18.89-9.16 27.23-4.55 9.21-10.36 17.71-15.33 26.69-6.74 12.82-17.15 23.77-21.19 37.94-3.01 7.98-2.17 16.71-3.83 24.98-1.93-8-3.52-16.12-6.89-23.68-4.84-11.47-10.01-22.85-16.32-33.6-5.83-7.62-13.4-14.12-22.4-17.66-3.84-1.36-8.1-1.37-11.8-3.02-6.37-5.64-11.79-12.31-18.41-17.69-4.08-3.3-7.92-6.94-12.41-9.68-8.3-5.11-16.21-10.88-23.44-17.42-15.46-13.22-30.12-27.35-45.57-40.59-8.87-8.07-18.46-15.31-27.18-23.56-29.45-26.31-59.88-51.52-88.99-78.2-12.12-11.93-24.85-23.27-36.08-36.06-27.92-30.12-53.47-62.37-81.94-92-4.62-4.58-8.45-9.9-13.23-14.32 21.78-6.02 43.11-13.5 64.54-20.64 7.83-2.88 15.84-5.29 23.57-8.43 9.9-5.02 20.3-8.94 30.39-13.53 17.44-9.01 34.64-18.48 51.66-28.26 33.28-19.36 64.48-42 96.24-63.71 7.99-4.98 15.91-10.07 23.84-15.13 16.58-9.5 33.21-18.9 49.94-28.13 20.68-11.47 39.63-27.5 63.33-32.37-4.01 8.83-8.32 17.54-12.15 26.46-3.04 8.63-6.1 17.27-9.04 25.94-0.93 5.13-0.35 10.43-0.84 15.63-0.56 5.83 3.56 10.38 6.29 15.07 1.55 5.24 2.19 10.71 3.32 16.07 1.7 7.84 1.24 15.94 2.7 23.82 3.74 21.65 10.93 42.49 17.75 63.31 10.37 29.22 16.52 59.72 21.53 90.26 0.27 10.1 3.51 19.72 5.7 29.5 4.39 17.75 7.82 35.77 9.39 54.01 0.66 8.64 1.34 17.29 1.97 25.94 1.55 16.02 1.34 32.21 4.11 48.1 1.51 7.18 2.14 14.52 2.26 21.86 0.14 14.98-0.69 29.97-2.33 44.87zm277.09-1605.6c-6.14 1.99-12.18 4.34-18.19 6.69l-0.08 0.92c1.12 0.79 2.54 0.7 3.87 0.82-1.88 0.72-3.67 1.63-5.35 2.71-0.59-0.62-1.15-1.23-1.72-1.83-1.92 1.94-4.56 2.78-7.15 3.35 2.65-1.51 5.75-2.4 7.99-4.53-0.11-0.14-0.35-0.43-0.46-0.58 3.62-1.72 7.17-3.66 10.32-6.18 1.42-0.09 2.84-0.17 4.29-0.25 1.17-0.39 2.37-0.76 3.57-1.12l0.07-0.53c1.27-0.37 2.55-0.75 3.84-1.13 0.64-0.53 1.28-1.07 1.94-1.59l-0.05 1.7c0.79-0.01 2.36-0.02 3.14-0.03-1.98 0.56-4.05 0.78-6.09 0.93l0.06 0.65zm87.58-29.1c-2.08 0.21-4.14 0.45-6.14 0.98-2.9 0.43-5.83 0.57-8.74 0.49 6.81-2.18 13.95-2.82 20.91-4.3 2.66-1.06 5.57-0.98 8.4-1.03-4.83 1.25-9.54 2.9-14.43 3.86zm51.74 3.32c1.52 0.83 3.06 1.67 4.6 2.51-1.44-0.43-2.82-0.88-4.21-1.36-2.73-0.02-5.47-0.11-8.06-0.98-2.84-0.15-5.67-0.28-8.44-0.86 6.76-0.63 13.56 0.15 20.34-0.17 3.23-0.32 6.27 0.9 9.2 2.1-4.38-1.22-8.9-1.73-13.43-1.24zm493.68 1632c-10.18 9.51-19.98 19.44-30.59 28.48-11.9 10.76-25.75 18.98-38.96 27.98-10.24 6.93-20.65 13.61-31.44 19.66-26.28 15.21-52.34 30.82-78.24 46.67-14.93 8.57-29.54 17.69-44.22 26.67-5.58 2.91-11.76 4.57-17 8.14-8.81 5.01-16.91 11.5-26.67 14.62-1.26-22.16-5.22-44.53-1.29-66.63 4.74-27.41 12.48-54.43 24.28-79.67 4.36-9.83 7.62-20.1 10.54-30.43 2.19-6.92 2.74-14.22 4.77-21.18 1.72-5.73 1.62-11.77 2.32-17.65 0.8-6.33-0.2-12.69 0.06-19.04 0.27-10.7-0.76-21.48 0.88-32.11 1.57-8.36 3.36-16.67 5.19-24.97 3.77-17.05 5.28-34.51 5.65-51.94 0.35-19.35 3.58-38.48 6.58-57.55 2.93-20.11 4.99-40.33 6.86-60.56 0.11-2.6 0.99-5.03 2.22-7.27 4.99 6.44 9.54 13.23 14.94 19.36 8.06 9.28 15.15 19.33 22.69 29.02 12.1 15.41 23.2 31.55 34.61 47.48 11.78 16.2 22.8 32.95 34.79 49 7.08 9.08 13.83 18.43 20.88 27.54 11.78 15.19 23.81 30.19 34.91 45.89 4.31 6.19 9.61 11.6 14.24 17.55 11.82 15.77 29.92 25.92 40.01 43.11-7.05 4.82-11.79 12.1-18.01 17.83z"/>
 <path d="m1276.3 99.11c0.06 3.44 2.95-1.49 0 0"/>
 <path d="m1296.8 120.26c-1.45 3.02 3.36-0.02 0 0"/>
 <path d="m1357.2 123.35c-1.76 2.83 3.39 0.29 0 0"/>
 <path d="m1379 135.16c4.22 0.92 8.44 2.06 12.14 4.4-2.36-0.01-4.58-0.04-6.9-0.1 0.09 0.64 0.25 1.93 0.33 2.57-0.35 0.44-1.06 1.32-1.41 1.76-0.49-0.09-1.47-0.28-1.96-0.37-0.23 0.37-0.68 1.12-0.91 1.49-0.7-0.16-2.09-0.47-2.78-0.63-0.01-0.8-0.03-2.41-0.04-3.21 1.05 0.2 2.12 0.41 3.2 0.61-0.6-2.16-1.21-4.33-1.67-6.52z"/>
 <path d="m721.32 229.43c1.64-0.9 3.68 2.72 1.85 3.48-1.48-0.18-2.51-2.17-1.85-3.48z"/>
 <path d="m776.16 318.15c-0.48 2.29-0.94 4.6-1.7 6.83"/>
 <path d="m789.54 477.5c0.47-0.05 1.42-0.13 1.89-0.18-0.01 3.88 0.11 7.77 0.4 11.64 0.67 2.63 0.77 5.35 0.95 8.06 0.97 3.67 0.85 7.5 0.6 11.26-2.59-6.87-2.37-14.27-3.7-21.36-0.27-3.13-0.2-6.28-0.14-9.42z"/>
</svg>
